<svg width="180" height="180" viewBox="0 0 180 180" fill="none" xmlns="http://www.w3.org/2000/svg">
  <rect width="180" height="180" rx="40" fill="#1A73E8"/>
  <path d="M90 28C73.1 28 59.1 33.6 50.1 42.3C41.1 51 36 63 36 75C36 87 39.4 99 44.1 111C48.8 123 53.4 135 61.5 144.8C67.9 153 79.9 150.8 84 141C88.1 131.3 91.5 117 91.5 105C91.5 99.4 95.6 94.5 100.5 94.5C105.4 94.5 109.5 99.4 109.5 105C109.5 117 112.9 131.3 117 141C121.1 150.8 133.1 153 139.5 144.8C147.6 135 152.3 123 156.9 111C161.6 99 165 87 165 75C165 63 159.9 51 150.9 42.3C141.9 33.6 127.9 28 111 28C94.1 28 90 28 90 28Z" fill="white"/>
</svg>
